<?xml version="1.0" encoding="UTF-8" standalone="no"?>
<!-- Created with Inkscape (http://www.inkscape.org/) -->

<svg
   xmlns:dc="http://purl.org/dc/elements/1.1/"
   xmlns:cc="http://creativecommons.org/ns#"
   xmlns:rdf="http://www.w3.org/1999/02/22-rdf-syntax-ns#"
   xmlns:svg="http://www.w3.org/2000/svg"
   xmlns="http://www.w3.org/2000/svg"
   xmlns:sodipodi="http://sodipodi.sourceforge.net/DTD/sodipodi-0.dtd"
   xmlns:inkscape="http://www.inkscape.org/namespaces/inkscape"
   width="79.218002"
   height="77.999458"
   id="svg4393"
   version="1.1"
   inkscape:version="0.48.4 r9939"
   sodipodi:docname="New document 21">
  <defs
     id="defs4395" />
  <sodipodi:namedview
     id="base"
     pagecolor="#ffffff"
     bordercolor="#666666"
     borderopacity="1.0"
     inkscape:pageopacity="0.0"
     inkscape:pageshadow="2"
     inkscape:zoom="5.6"
     inkscape:cx="36.690119"
     inkscape:cy="35.656871"
     inkscape:document-units="px"
     inkscape:current-layer="layer1"
     showgrid="false"
     fit-margin-top="0"
     fit-margin-left="0"
     fit-margin-right="0"
     fit-margin-bottom="0"
     inkscape:window-width="878"
     inkscape:window-height="728"
     inkscape:window-x="598"
     inkscape:window-y="163"
     inkscape:window-maximized="0" />
  <metadata
     id="metadata4398">
    <rdf:RDF>
      <cc:Work
         rdf:about="">
        <dc:format>image/svg+xml</dc:format>
        <dc:type
           rdf:resource="http://purl.org/dc/dcmitype/StillImage" />
        <dc:title></dc:title>
      </cc:Work>
    </rdf:RDF>
  </metadata>
  <g
     inkscape:label="Layer 1"
     inkscape:groupmode="layer"
     id="layer1"
     transform="translate(-303.24814,-341.93388)">
    <g
       id="g4327"
       transform="matrix(0.6226949,0,0,0.6226949,-60.667981,324.98315)">
      <g
         transform="translate(-4,-78)"
         id="g4296">
        <text
           xml:space="preserve"
           style="font-size:19.11110497px;font-style:normal;font-weight:normal;line-height:125%;letter-spacing:0px;word-spacing:0px;fill:#000000;fill-opacity:1;stroke:none;font-family:Sans"
           x="586.54559"
           y="230.21207"
           id="text3022"
           sodipodi:linespacing="125%"><tspan
             sodipodi:role="line"
             id="tspan3024"
             x="586.54559"
             y="230.21207">INFORMATICS</tspan></text>
        <text
           xml:space="preserve"
           style="font-size:26.47520256px;font-style:normal;font-variant:normal;font-weight:normal;font-stretch:normal;text-align:start;line-height:125%;letter-spacing:0px;word-spacing:0px;writing-mode:lr-tb;text-anchor:start;fill:#000000;fill-opacity:1;stroke:none;font-family:Arial Black;-inkscape-font-specification:'Arial Black,'"
           x="587.21899"
           y="212.63216"
           id="text3888"
           sodipodi:linespacing="125%"><tspan
             sodipodi:role="line"
             id="tspan3890"
             x="587.21899"
             y="212.63216">ORBITAL</tspan></text>
      </g>
      <g
         transform="matrix(0.62446085,0,0,0.62446085,428.18073,-265.16447)"
         id="g4267">
        <path
           style="color:#000000;fill:#aaaaaa;fill-opacity:1;fill-rule:nonzero;stroke:none;stroke-width:0.5;marker:none;visibility:visible;display:inline;overflow:visible;enable-background:accumulate"
           d="m 426.21327,516.88336 c 2.22645,9.22788 -20.54899,29.76783 -52.60794,47.06116 -32.86664,17.72901 -63.20833,25.43807 -68.64877,17.57207 0.0968,0.41264 0.21128,0.80981 0.40894,1.17624 4.62503,8.57404 35.52088,0.90149 68.9737,-17.14372 33.45282,-18.04522 56.79369,-39.63123 52.16867,-48.20527 -0.0868,-0.16077 -0.18959,-0.31111 -0.2946,-0.46048 z"
           id="path3937-7-4"
           inkscape:connector-curvature="0" />
        <path
           inkscape:connector-curvature="0"
           style="color:#000000;fill:#aaaaaa;fill-opacity:1;fill-rule:nonzero;stroke:none;stroke-width:0.5;marker:none;visibility:visible;display:inline;overflow:visible;enable-background:accumulate"
           d="m 431.03125,499.34375 c 0.18236,0.90774 0.16136,1.89986 -0.0312,2.96875 l 0.84375,-0.65625 c -0.0916,-0.73923 -0.3221,-1.43123 -0.65625,-2.0625 -0.0446,-0.0844 -0.10742,-0.16808 -0.15625,-0.25 z m -1.5625,10.34375 -2.1875,0.5625 c -8.80443,12.73227 -31.82787,30.47739 -61.09375,45.96875 -32.94432,17.43848 -63.79605,26.71902 -77.59375,24.28125 l -2.9375,0.65625 c 11.17401,5.38298 44.89323,-3.92801 81.21875,-23.15625 31.13547,-16.481 55.18681,-35.49393 62.59375,-48.3125 z M 281.875,576.78125 c 0.11354,0.53812 0.31051,1.0552 0.5625,1.53125 0.12733,0.24055 0.27687,0.46735 0.4375,0.6875 l 1,-0.21875 c -0.8384,-0.55374 -1.52634,-1.21855 -2,-2 z"
           id="path3937-3" />
        <path
           inkscape:connector-curvature="0"
           style="color:#000000;fill:#aaaaaa;fill-opacity:1;fill-rule:nonzero;stroke:none;stroke-width:0.5;marker:none;visibility:visible;display:inline;overflow:visible;enable-background:accumulate"
           d="m 441.0625,481.5625 c 2.89462,6.4974 -4.32953,17.40901 -18.40625,29.875 l 0.8125,1.375 c 14.34366,-12.68444 21.55788,-23.76298 18.25,-30.21875 -0.18347,-0.35807 -0.41265,-0.70896 -0.65625,-1.03125 z m -23.71875,34.40625 c -14.0901,11.50634 -33.40723,23.9748 -55.65625,35.375 -19.53676,10.01046 -38.43881,17.70151 -54.65625,22.625 -0.14043,0.51896 -0.28956,1.10038 -0.40625,1.71875 16.48073,-4.90785 35.81799,-12.73899 55.84375,-23 22.51905,-11.53855 42.04813,-24.16551 56.1875,-35.78125 -0.25188,-0.15432 -0.72883,-0.48334 -1.3125,-0.9375 z m -158.21875,59.75 c 0.0508,0.11387 0.0993,0.23261 0.15625,0.34375 3.653,7.12931 19.39037,7.11968 41.21875,1.34375 -0.28644,-0.37478 -0.6055,-0.82245 -0.9375,-1.3125 -20.66952,5.44709 -35.84052,5.70691 -40.4375,-0.375 z"
           id="path3937-8-4" />
        <path
           style="color:#000000;fill:#eeeeee;fill-opacity:1;fill-rule:nonzero;stroke:none;stroke-width:0.5;marker:none;visibility:visible;display:inline;overflow:visible;enable-background:accumulate"
           d="m 363.04994,534.50557 -9.05606,4.76685 28.05882,53.17493 2.85875,-0.87316 z"
           id="rect4010-7-6"
           inkscape:connector-curvature="0"
           sodipodi:nodetypes="ccccc" />
        <path
           inkscape:connector-curvature="0"
           style="color:#000000;fill:#000000;fill-opacity:1;fill-rule:nonzero;stroke:none;stroke-width:0.5;marker:none;visibility:visible;display:inline;overflow:visible;enable-background:accumulate"
           d="m 420.65625,472.5625 c -19.18444,0.48216 -51.92104,10.73449 -86.6875,28.21875 -50.5694,25.43165 -86.2682,56.57019 -79.75,69.53125 0.83826,1.66683 2.32826,2.92355 4.40625,3.84375 -3.28573,-13.74849 31.62521,-43.51487 80.3125,-68 44.06469,-22.1604 84.85611,-32.67145 98.9375,-26.4375 -0.12692,-0.52745 -0.29034,-1.05221 -0.53125,-1.53125 -2.03694,-4.05033 -7.9673,-5.84416 -16.6875,-5.625 z"
           id="path3937-8-1" />
        <path
           inkscape:connector-curvature="0"
           style="color:#000000;fill:#000000;fill-opacity:1;fill-rule:nonzero;stroke:none;stroke-width:0.5;marker:none;visibility:visible;display:inline;overflow:visible;enable-background:accumulate"
           d="m 416.65625,492.1875 c -15.38843,-0.35218 -43.40908,8.18032 -73.25,23.1875 -41.5178,20.87955 -70.82023,46.42138 -65.46875,57.0625 0.68897,1.36998 1.91604,2.43184 3.625,3.1875 -2.73419,-11.2792 25.91134,-35.73007 65.90625,-55.84375 36.17264,-18.19144 69.68484,-26.83257 81.25,-21.71875 -0.10411,-0.42948 -0.24121,-0.85968 -0.4375,-1.25 -1.5051,-2.99281 -5.60344,-4.48719 -11.625,-4.625 z"
           id="path3937-4" />
        <path
           inkscape:connector-curvature="0"
           style="color:#000000;fill:#000000;fill-opacity:1;fill-rule:nonzero;stroke:none;stroke-width:0.5;marker:none;visibility:visible;display:inline;overflow:visible;enable-background:accumulate"
           d="m 413.03125,510.5 c -12.88227,0.32377 -34.87321,7.19689 -58.21875,18.9375 -33.95715,17.07726 -57.93944,37.9842 -53.5625,46.6875 0.55885,1.11125 1.58895,1.94553 2.96875,2.5625 -2.17908,-9.23831 21.26085,-29.19172 53.9375,-45.625 29.58276,-14.87735 56.97609,-21.96146 66.4375,-17.78125 -0.0851,-0.34925 -0.2153,-0.68245 -0.375,-1 -1.36779,-2.71978 -5.33192,-3.92842 -11.1875,-3.78125 z"
           id="path3937-7-5" />
        <path
           inkscape:connector-curvature="0"
           style="color:#000000;fill:#000000;fill-opacity:1;fill-rule:nonzero;stroke:none;stroke-width:0.5;marker:none;visibility:visible;display:inline;overflow:visible;enable-background:accumulate"
           d="m 334.875,468.22156 -11.09375,4.84375 12.375,24.78125 8.875,-4.03125 -10.15625,-25.59375 z m 14.3125,36.0625 -8,3.625 2.4375,4.875 7.5625,-3.4375 -2,-5.0625 z m 6.15625,15.5 -6.71875,3.0625 2.8125,5.65625 6.21875,-2.875 -2.3125,-5.84375 z m 6.46875,16.3125 -5.34375,2.46875 25.9375,51.9375 0.8125,-0.4375 -21.40625,-53.96875 z"
           id="rect4010-7" />
      </g>
    </g>
  </g>
</svg>
